<svg width="512" height="512" viewBox="0 0 512 512" fill="#231A26" xmlns="http://www.w3.org/2000/svg">
  <path d="M250.89 62.0864C253.362 56.5582 258.844 53 264.891 53H418.643C429.762 53 437.187 64.4799 432.643 74.6453L413.509 117.45C411.038 122.978 405.555 126.537 399.509 126.537H245.757C234.638 126.537 227.212 115.057 231.756 104.891L250.89 62.0864Z"/>
  <path d="M97.4909 228.916C99.962 223.387 105.445 219.829 111.491 219.829H297.019C308.138 219.829 315.563 231.309 311.019 241.475L291.885 284.279C289.414 289.808 283.931 293.366 277.885 293.366H92.3574C81.2382 293.366 73.8128 281.886 78.3568 271.721L97.4909 228.916Z"/>
  <path d="M97.4909 393.55C99.962 388.022 105.445 384.463 111.491 384.463H367.144C378.263 384.463 385.689 395.943 381.145 406.109L362.011 448.914C359.54 454.442 354.057 458 348.01 458H92.3574C81.2382 458 73.8128 446.52 78.3568 436.355L97.4909 393.55Z"/>
</svg>
